<?xml version="1.0" encoding="UTF-8"?>
<svg version="1.1" xmlns="http://www.w3.org/2000/svg" width="256" height="256">
<path d="M0 0 C2.4223372 0.00850284 4.84229807 -0.02037409 7.2644043 -0.05200195 C40.75487928 -0.20269955 71.3615186 14.698219 95.07885742 37.81323242 C115.4804777 58.35207102 130.56962938 88.46427386 130.86010742 117.71166992 C130.86817917 118.50393982 130.87625092 119.29620972 130.88456726 120.11248779 C130.89835407 121.79005792 130.90910021 123.46765546 130.91699219 125.14526367 C130.92840277 126.8243866 130.94867663 128.50347649 130.97851562 130.18237305 C131.5811671 164.20019719 117.94351733 194.9653131 94.56713867 219.49682617 C72.43063493 242.04271381 41.8605757 256.60673534 10.08851624 256.90182495 C8.47355977 256.90396869 6.85858736 256.90068596 5.24365234 256.89208984 C2.82131514 256.88358701 0.40135427 256.91246393 -2.02075195 256.9440918 C-34.52922082 257.09037065 -65.08140914 242.99933625 -88.28051758 220.57104492 C-105.45370897 203.47817716 -117.53495848 181.99189625 -123.37817383 158.44604492 C-123.56508789 157.69395752 -123.75200195 156.94187012 -123.94458008 156.16699219 C-125.711201 147.94510687 -125.75042709 139.74122214 -125.7487793 131.36962891 C-125.7531236 128.91195786 -125.78946972 126.45613107 -125.82739258 123.9987793 C-126.06570752 90.46314267 -111.14483466 59.62016754 -87.87133789 35.91625977 C-64.20299261 12.61168565 -33.07136166 -0.17603517 0 0 Z " fill="#0396C8" transform="translate(125.378173828125,-0.446044921875)"/>
<path d="M0 0 C3.03201991 0.01627996 6.0627434 -0.00004436 9.09472656 -0.01904297 C11.0452503 -0.01706347 12.99577325 -0.0132259 14.94628906 -0.00732422 C15.84115021 -0.01339691 16.73601135 -0.0194696 17.6579895 -0.02572632 C24.02904408 0.04552775 28.80314282 1.04096451 33.98535156 5.00439453 C34.79746094 5.84550781 34.79746094 5.84550781 35.62597656 6.70361328 C36.17769531 7.25662109 36.72941406 7.80962891 37.29785156 8.37939453 C42.48125889 14.98695586 42.30514 20.96121947 42.26416016 29.05004883 C42.27204559 30.96071136 42.27204559 30.96071136 42.28009033 32.90997314 C42.29372634 36.39120096 42.28848194 39.87216103 42.27895308 43.35339332 C42.27134203 46.99950348 42.27840564 50.64559118 42.28311157 54.29170227 C42.28856285 60.41057441 42.28139188 66.52933775 42.26708984 72.64819336 C42.25074256 79.72381905 42.25606928 86.79918567 42.27256906 93.87480515 C42.28617578 99.95307691 42.28810826 106.03127062 42.28025305 112.10955268 C42.27557484 115.73862795 42.27495612 119.36758134 42.28486252 122.99664879 C42.29512508 127.03804299 42.2809083 131.07898889 42.26416016 135.12036133 C42.27023285 136.32509598 42.27630554 137.52983063 42.28256226 138.77107239 C42.26987305 140.41763321 42.26987305 140.41763321 42.25692749 142.09745789 C42.25579641 143.05293864 42.25466534 144.0084194 42.25349998 144.99285412 C41.87597656 147.39111328 41.87597656 147.39111328 40.55506325 149.19770527 C37.76749034 151.17896798 35.0098377 150.78089518 31.65332031 150.78955078 C30.95203506 150.79242096 30.25074982 150.79529114 29.5282135 150.79824829 C28.04801627 150.80028729 26.56779199 150.79476881 25.08764648 150.78222656 C22.81791253 150.76614471 20.54995261 150.78209122 18.28027344 150.80126953 C16.84211846 150.79928754 15.40396458 150.79544477 13.96582031 150.78955078 C12.65476318 150.78616699 11.34370605 150.7827832 9.99291992 150.77929688 C8.96432861 150.65119629 7.9357373 150.5230957 6.87597656 150.39111328 C4.76147517 147.21936119 4.62720527 146.47732641 4.63546753 142.85432434 C4.63134354 141.45980293 4.63134354 141.45980293 4.62713623 140.03710938 C4.63792206 138.51041626 4.63792206 138.51041626 4.64892578 136.95288086 C4.64863373 135.87955002 4.64834167 134.80621918 4.64804077 133.70036316 C4.64943639 130.1453753 4.66500869 126.59059588 4.68066406 123.03564453 C4.68439336 120.5737062 4.68724073 118.11176639 4.6892395 115.64982605 C4.69688247 109.16427526 4.71653673 102.67881379 4.73864746 96.19329834 C4.75909156 89.57760832 4.76823815 82.9619039 4.77832031 76.34619141 C4.79978193 63.36112722 4.83354248 50.376125 4.87597656 37.39111328 C0.95853764 37.47337041 -2.95749696 37.58607313 -6.87402344 37.70361328 C-8.51177734 37.73745117 -8.51177734 37.73745117 -10.18261719 37.77197266 C-32.45716639 38.49688402 -51.88458868 48.21351512 -67.12402344 64.39111328 C-77.07815261 76.87302605 -87.66027918 93.79955125 -86.12402344 110.39111328 C-85.79402344 111.38111328 -85.46402344 112.37111328 -85.12402344 113.39111328 C-84.03852203 113.38667206 -82.95302063 113.38223083 -81.83462524 113.37765503 C-71.62225658 113.33717314 -61.40990412 113.30715982 -51.19747353 113.28748894 C-45.94671926 113.27703611 -40.69602959 113.26284965 -35.4453125 113.24023438 C-30.38140602 113.21855934 -25.3175618 113.20655596 -20.25361252 113.2013588 C-18.31824131 113.19765341 -16.38287365 113.1904181 -14.44752884 113.17965317 C-11.74407747 113.16520914 -9.04088587 113.16313235 -6.33740234 113.1640625 C-5.53107864 113.15687195 -4.72475494 113.1496814 -3.89399719 113.14227295 C1.64787224 113.16300896 1.64787224 113.16300896 3.87597656 115.39111328 C3.51556256 118.63483928 2.12284008 120.74359001 0.21582031 123.33251953 C-0.3271167 124.07630859 -0.87005371 124.82009766 -1.42944336 125.58642578 C-2.299198 126.75818359 -2.299198 126.75818359 -3.18652344 127.95361328 C-3.77344971 128.75412109 -4.36037598 129.55462891 -4.96508789 130.37939453 C-6.13909365 131.98023813 -7.31540656 133.57939256 -8.49414062 135.17675781 C-9.90503792 137.09360001 -11.30429597 139.0177203 -12.69433594 140.94970703 C-17.86187889 148.12896873 -17.86187889 148.12896873 -20.12402344 150.39111328 C-22.88263419 150.60024829 -25.54166891 150.68475617 -28.30224609 150.68164062 C-29.14800201 150.68835785 -29.99375793 150.69507507 -30.86514282 150.70199585 C-33.6728497 150.72105613 -36.48031831 150.72490484 -39.28808594 150.72705078 C-41.2390452 150.73347593 -43.19000348 150.74020408 -45.14096069 150.7472229 C-49.23836498 150.75921771 -53.33568485 150.76290174 -57.43310547 150.76171875 C-62.67205219 150.76151607 -67.9104533 150.78875501 -73.14927101 150.82326317 C-77.18316101 150.84556018 -81.21692064 150.84955534 -85.25086594 150.8484993 C-87.18128708 150.85085347 -89.11171192 150.8596666 -91.0420723 150.87516403 C-93.75157368 150.8948693 -96.45991148 150.88896712 -99.16943359 150.87695312 C-99.96039429 150.88819214 -100.75135498 150.89943115 -101.56628418 150.91101074 C-108.04496928 150.83840456 -113.25196918 148.91940815 -118.14746094 144.60986328 C-118.59347656 144.04267578 -119.03949219 143.47548828 -119.49902344 142.89111328 C-119.96050781 142.32392578 -120.42199219 141.75673828 -120.89746094 141.17236328 C-125.25032443 134.85100738 -124.51858676 128.33691371 -124.49902344 120.89111328 C-124.49920471 119.84799988 -124.49920471 119.84799988 -124.49938965 118.78381348 C-124.4701061 106.96619779 -123.37988996 95.78664609 -120.12402344 84.39111328 C-119.69089844 82.85970703 -119.69089844 82.85970703 -119.24902344 81.29736328 C-109.11593337 50.53619701 -86.55354418 26.27515856 -58.18652344 11.35986328 C-39.57344241 2.07132381 -20.53456194 -0.1314158 0 0 Z " fill="#FBFDFE" transform="translate(164.1240234375,49.60888671875)"/>
<path d="M0 0 C0.33 0 0.66 0 1 0 C1 10.56 1 21.12 1 32 C0.67 32 0.34 32 0 32 C-0.33 24.41 -0.66 16.82 -1 9 C-2.32 9.99 -3.64 10.98 -5 12 C-3.92598892 9.08482708 -3.22189824 7.22189824 -1 5 C-0.35232207 2.42938689 -0.35232207 2.42938689 0 0 Z " fill="#149DCB" transform="translate(168,163)"/>
</svg>
